<svg xmlns="http://www.w3.org/2000/svg" width="560" height="360" viewBox="0 0 560 360" fill="none">
  <defs>
    <linearGradient id="bg" x1="0" y1="0" x2="1" y2="1">
      <stop offset="0" stop-color="#0f1024"/>
      <stop offset="1" stop-color="#151739"/>
    </linearGradient>
  </defs>
  <rect width="560" height="360" rx="16" fill="url(#bg)" stroke="rgba(255,255,255,0.08)"/>
  <rect x="24" y="24" width="120" height="12" rx="6" fill="#485aff" opacity=".6"/>
  <rect x="24" y="52" width="300" height="10" rx="5" fill="#fff" opacity=".18"/>
  <rect x="24" y="72" width="260" height="10" rx="5" fill="#fff" opacity=".12"/>
  <rect x="24" y="112" width="512" height="160" rx="8" fill="#0b0b24"/>
  <rect x="48" y="136" width="80" height="120" rx="6" fill="#485aff" opacity=".3"/>
  <rect x="144" y="156" width="80" height="100" rx="6" fill="#485aff" opacity=".35"/>
  <rect x="240" y="176" width="80" height="80" rx="6" fill="#485aff" opacity=".45"/>
  <rect x="336" y="156" width="80" height="100" rx="6" fill="#485aff" opacity=".4"/>
  <rect x="432" y="136" width="80" height="120" rx="6" fill="#485aff" opacity=".3"/>
  <rect x="24" y="296" width="220" height="12" rx="6" fill="#fff" opacity=".2"/>
  <rect x="24" y="316" width="180" height="12" rx="6" fill="#fff" opacity=".12"/>
</svg>


